<?xml version="1.0" standalone="no"?><!DOCTYPE svg PUBLIC "-//W3C//DTD SVG 1.1//EN" "http://www.w3.org/Graphics/SVG/1.1/DTD/svg11.dtd"><svg t="1580216034864" class="icon" viewBox="0 0 1024 1024" version="1.1" xmlns="http://www.w3.org/2000/svg" p-id="1411" xmlns:xlink="http://www.w3.org/1999/xlink" width="200" height="200"><defs><style type="text/css"></style></defs><path d="M765.211569 604.530215H543.507692V390.325169h221.703877a31.507692 31.507692 0 0 0 0-63.015384H547.485538l239.726277-233.85797a31.507692 31.507692 0 1 0-44.000492-45.103261L514.032246 271.911385 280.591754 48.143754a31.499815 31.499815 0 1 0-43.598769 45.489231l243.775015 233.668923h-221.971692a31.507692 31.507692 0 0 0 0 63.015384H480.492308v214.205046H258.788431a31.507692 31.507692 0 0 0 0 63.015385H480.492308V953.107692a31.507692 31.507692 0 0 0 63.015384 0V667.5456h221.703877a31.507692 31.507692 0 0 0 0-63.015385z" fill="" p-id="1412"></path></svg>